<?xml version="1.0" encoding="UTF-8"?>
<svg version="1.1" xmlns="http://www.w3.org/2000/svg" width="512" height="512">
<path d="M0 0 C0.99 0.33 1.98 0.66 3 1 C2.98259766 2.64814697 2.98259766 2.64814697 2.96484375 4.32958984 C2.9320432 8.44896321 2.95234025 12.5667309 2.98779297 16.68603516 C2.99584968 18.46076723 2.9899538 20.23562445 2.96923828 22.01025391 C2.72787249 35.74366147 2.72787249 35.74366147 9.95019531 47.03417969 C10.62663086 47.68290039 11.30306641 48.33162109 12 49 C12.90710692 50.17052039 13.78421937 51.36545613 14.6171875 52.58984375 C15.17829224 53.4092041 15.17829224 53.4092041 15.75073242 54.24511719 C30.71332844 76.76861678 42.42937132 102.51924693 44.84716797 129.70703125 C45.46664969 138.24565624 45.46664969 138.24565624 49.03125 145.79296875 C51.34635609 147.59554382 53.72152264 149.1552297 56.203125 150.71435547 C60.06661676 153.47864183 63.30146282 156.99915797 66.625 160.375 C67.3660498 161.12378418 68.10709961 161.87256836 68.87060547 162.64404297 C74.28751576 168.16752337 79.35434409 173.80579212 84 180 C84.71784668 180.93585938 84.71784668 180.93585938 85.45019531 181.890625 C101.8434321 203.33180993 113.59675063 226.70646393 120 253 C120.29777344 254.21945312 120.59554688 255.43890625 120.90234375 256.6953125 C122.82212748 265.31222198 123.36632496 273.19463347 123 282 C117.63542353 282.25081137 113.16559562 281.47100996 108.125 279.75 C107.36251953 279.49186523 106.60003906 279.23373047 105.81445312 278.96777344 C84.38545572 271.36311337 63.37279636 260.07003331 44.67919922 247.13427734 C42.11975718 245.36589635 39.97132703 243.99044234 37 243 C36.41605469 244.43666016 36.41605469 244.43666016 35.8203125 245.90234375 C26.6626336 267.91432797 13.51535678 286.87023263 -3 304 C-4.1446875 305.23943359 -4.1446875 305.23943359 -5.3125 306.50390625 C-19.46998574 321.40274682 -37.54531071 333.11551307 -56 342 C-55.46334717 342.21503174 -54.92669434 342.43006348 -54.3737793 342.65161133 C-44.07256297 346.81956286 -34.06203412 351.23403268 -24.4375 356.8125 C-23.64754639 357.26794189 -22.85759277 357.72338379 -22.04370117 358.19262695 C-14.25991095 362.81358816 -14.25991095 362.81358816 -12 366 C-12.25 368.75 -12.25 368.75 -13 371 C-14.54016694 371.4839655 -16.08222194 371.96192387 -17.625 372.4375 C-18.91277344 372.83775391 -18.91277344 372.83775391 -20.2265625 373.24609375 C-42.69614671 379.35402298 -70.63818326 376.24026145 -91.14453125 365.87890625 C-95.17859619 363.22448048 -97.35281226 359.9707816 -100 356 C-100.95132812 356.144375 -101.90265625 356.28875 -102.8828125 356.4375 C-122.81340111 359.18216817 -147.58442964 361.47185679 -167 355 C-167.2475 355.721875 -167.495 356.44375 -167.75 357.1875 C-171.28797678 365.14794775 -177.30942533 367.81066136 -185 371 C-195.70670591 374.48963707 -205.72382417 375.61921754 -216.92871094 375.46655273 C-219.26308407 375.43733624 -221.59520518 375.44605839 -223.9296875 375.45898438 C-234.60206681 375.44503005 -244.76742719 374.92737807 -254 369 C-253.73214011 365.78568132 -253.38565232 364.3586941 -250.98828125 362.12890625 C-247.26805367 359.47854804 -243.41301472 357.31346508 -239.375 355.1875 C-238.55410889 354.7538916 -237.73321777 354.3202832 -236.88745117 353.87353516 C-228.2226537 349.415661 -219.21684681 346.11700754 -210 343 C-212.87841328 340.67261798 -215.92097548 338.89799165 -219.17651367 337.1472168 C-233.67552163 329.32651844 -246.7719967 319.9799676 -258.52978516 308.43505859 C-259.94142302 307.05717626 -261.38231394 305.70945794 -262.82421875 304.36328125 C-281.37555302 286.65879819 -293.09423518 264.33628032 -303 241 C-303.83660156 241.68964844 -304.67320312 242.37929688 -305.53515625 243.08984375 C-328.43207309 261.6890113 -359.5148241 278.71042617 -389 283 C-391.75767964 240.33256775 -365.77631023 197.90898834 -339 167 C-337.93727079 165.70852191 -336.8747238 164.41689381 -335.8125 163.125 C-331.78865335 158.46099593 -327.09431372 154.51618111 -322.11328125 150.91015625 C-321.12714844 150.17667969 -320.14101563 149.44320312 -319.125 148.6875 C-318.19945312 148.03136719 -317.27390625 147.37523437 -316.3203125 146.69921875 C-312.9635469 142.79429446 -312.72162085 138.99268119 -312 134 C-311.66251542 132.16866921 -311.31463964 130.3392265 -310.95703125 128.51171875 C-310.68306519 127.09789917 -310.68306519 127.09789917 -310.40356445 125.65551758 C-305.06132459 98.82957373 -294.89011819 65.06312353 -275.08129883 45.06274414 C-267.88250117 37.62560605 -268.99519867 28.66300296 -269.0625 18.9375 C-269.04937386 17.19593695 -269.03312545 15.45439449 -269.01367188 13.71289062 C-268.9730658 9.47464159 -268.97487585 5.23834828 -269 1 C-258.93589996 3.32559825 -249.14561675 6.36607652 -239.3125 9.5 C-237.62240371 10.03583212 -235.9322994 10.57163898 -234.2421875 11.10742188 C-222.96508256 14.69178274 -211.73013413 18.39276851 -200.51568604 22.16799927 C-187.3587656 26.59469641 -174.13385458 30.79331321 -160.88671875 34.94140625 C-160.1243692 35.18053741 -159.36201965 35.41966858 -158.5765686 35.66604614 C-157.0914163 36.13093976 -155.60556835 36.59361769 -154.11898804 37.05392456 C-148.96778047 38.65819125 -143.90757467 40.45080347 -138.88208008 42.41821289 C-129.08606766 44.39567139 -119.09559006 39.60943959 -109.94921875 36.48828125 C-108.26424133 35.92096306 -106.5789622 35.35454032 -104.8934021 34.78895569 C-101.32928737 33.59139972 -97.76698202 32.38867003 -94.20608521 31.18157959 C-85.93174215 28.37709807 -77.64866585 25.59860704 -69.36577415 22.81949615 C-67.54357182 22.20798474 -65.72148036 21.5961428 -63.89949989 20.98397064 C-47.22354185 15.38141817 -30.49828438 9.95917662 -13.71166992 4.6965332 C-12.49672348 4.31530556 -12.49672348 4.31530556 -11.25723267 3.92637634 C-9.79440657 3.46827715 -8.33097875 3.01209233 -6.86679077 2.55836487 C-3.36074068 1.46585623 -3.36074068 1.46585623 0 0 Z M-246.375 88.4375 C-253.48448024 97.41472505 -256.13533 107.6467 -255 119 C-252.44885615 129.90034192 -246.14706285 138.6125595 -237 145 C-227.3721137 150.69051191 -216.87449133 151.85954347 -206.0390625 149.30078125 C-196.80765433 145.93486781 -188.50248049 139.43426928 -183.77734375 130.75390625 C-178.60251795 119.16155456 -179.51394272 108.39789634 -183.84765625 96.71484375 C-186.13351172 91.57909054 -189.58351396 87.48097422 -194 84 C-194.66 84 -195.32 84 -196 84 C-196.495 82.515 -196.495 82.515 -197 81 C-212.7036997 69.47848664 -234.08551853 74.97759172 -246.375 88.4375 Z M-77.3125 89.375 C-83.53359617 97.11259607 -86.50864119 107.12447022 -85.875 117 C-84.43936034 127.52802418 -79.51431848 136.62827556 -71.1875 143.25 C-62.43652693 149.40250406 -53.63224431 151.83816232 -43 151 C-33.51412655 149.2645999 -24.32081438 144.67327122 -18.3125 136.9921875 C-11.45901589 126.58957769 -9.21793776 116.19407908 -11.61328125 103.8359375 C-14.40244995 94.32573234 -19.51187647 86.89567073 -27.9375 81.5625 C-45.81463845 71.97187709 -63.45581221 74.44172745 -77.3125 89.375 Z M-172 140 C-171.40920179 143.07491222 -170.52877833 144.90723288 -168.515625 147.29296875 C-167.99919434 147.91445801 -167.48276367 148.53594727 -166.95068359 149.17626953 C-166.38945801 149.83997559 -165.82823242 150.50368164 -165.25 151.1875 C-160.50111984 156.91172607 -155.86864438 162.69807891 -151.375 168.625 C-145.66383216 176.14804039 -139.85873544 183.59145879 -134 191 C-130.83597859 189.63803222 -129.11198825 188.23679477 -127.0390625 185.5 C-126.4920166 184.78650391 -125.9449707 184.07300781 -125.38134766 183.33789062 C-124.80175293 182.56638672 -124.2221582 181.79488281 -123.625 181 C-122.37519006 179.36443808 -121.12518434 177.72902575 -119.875 176.09375 C-118.9159375 174.83111328 -118.9159375 174.83111328 -117.9375 173.54296875 C-114.86196892 169.50633421 -111.7424834 165.50425496 -108.625 161.5 C-107.75307007 160.37247314 -107.75307007 160.37247314 -106.86352539 159.22216797 C-104.39375218 156.03415342 -101.916123 152.86592725 -99.30859375 149.7890625 C-98.56738281 148.90992188 -97.82617188 148.03078125 -97.0625 147.125 C-96.43472656 146.40570313 -95.80695313 145.68640625 -95.16015625 144.9453125 C-93.82910925 143.09344421 -93.82910925 143.09344421 -94.0078125 141.015625 C-98.44386314 132.00380559 -111.18897927 126.69575773 -120.04296875 123.19140625 C-139.75264943 117.09779495 -158.00399592 126.80605919 -172 140 Z " fill="#FEFEFE" transform="translate(389,137)"/>
<path d="M0 0 C1.54576931 0.52292419 3.09167312 1.04545088 4.63769531 1.56762695 C39.92120741 13.53180154 75.02627611 26.04343229 110.13592529 38.50628662 C121.59509123 42.57384324 133.06135876 46.61503338 144.5625 50.5625 C147.88537128 51.70522566 151.20812687 52.84828629 154.53076172 53.99169922 C156.46170044 54.65614428 158.39268336 55.32046162 160.32403564 55.98370361 C164.99423435 57.58797995 169.66104899 59.20159658 174.32427979 60.82601929 C175.83814606 61.35174595 177.35305736 61.87447455 178.86907959 62.39395142 C180.97678174 63.11664018 183.08047158 63.85004422 185.18359375 64.5859375 C186.39200928 65.00407715 187.6004248 65.4222168 188.84545898 65.85302734 C193.66646277 67.86820622 197.26530395 69.86670593 200.1875 74.25 C200.625 77.125 200.625 77.125 200.1875 80.25 C196.63060805 84.55430639 193.31249184 86.30692948 188.0625 88.0625 C186.84304688 88.48144531 185.62359375 88.90039062 184.3671875 89.33203125 C181.1875 90.25 181.1875 90.25 178.1875 90.25 C178.43541542 91.28025803 178.43541542 91.28025803 178.68833923 92.33132935 C179.24952696 95.61268127 179.24867141 98.61998079 179.17407227 101.94873047 C179.14775862 103.30068669 179.12160742 104.65264608 179.09559631 106.00460815 C179.08012316 106.71523281 179.06465 107.42585747 179.04870796 108.1580162 C178.9719109 111.94487765 178.93108653 115.73219599 178.88476562 119.51953125 C178.82481285 124.32831461 178.75396294 129.13603299 178.63891602 133.94384766 C178.54663412 137.84003025 178.4939547 141.73501203 178.46742058 145.63217545 C178.45020218 147.11148816 178.41867708 148.5907097 178.37222481 150.06939316 C177.88863442 158.27980309 177.88863442 158.27980309 180.93380737 165.60748291 C183.01128117 167.46573862 183.01128117 167.46573862 185.22569275 168.84451294 C189.26285411 171.73683483 190.66837018 176.69261054 192.1875 181.25 C192.91664556 189.92963653 191.93929993 196.3826055 186.875 203.5 C181.08725754 209.42234113 175.48814353 211.90867909 167.25 212.5625 C160.42411253 212.33848439 154.7886601 209.72029181 149.79296875 205.11328125 C144.87997731 199.41134228 142.30794894 192.71783405 142.1875 185.25 C143.3880509 175.80930425 147.97182188 169.9905518 155.1875 164.25 C157.4674342 162.40446445 157.4674342 162.40446445 157.39004517 159.57980347 C157.36783905 158.44729156 157.34563293 157.31477966 157.32275391 156.14794922 C157.30258209 154.86677216 157.28241028 153.58559509 157.2616272 152.26559448 C157.22932163 150.86195383 157.19679482 149.45831826 157.1640625 148.0546875 C157.13789934 146.62266603 157.11263201 145.19062794 157.08822632 143.75857544 C157.02153608 139.98707056 156.94265228 136.21591473 156.86126709 132.44470215 C156.78038497 128.59738577 156.71098131 124.74986446 156.640625 120.90234375 C156.50084663 113.3513142 156.348192 105.80061651 156.1875 98.25 C126.53035668 107.56730788 96.89486502 116.94779922 67.3125 126.5 C66.66393414 126.7094072 66.01536827 126.91881439 65.3471489 127.13456726 C45.22844799 133.63134961 25.12043732 140.16101734 5.02703857 146.73565674 C2.77454263 147.47033591 0.5201335 148.19882017 -1.73486328 148.92578125 C-4.36323696 149.77337987 -6.97596758 150.64830151 -9.58935547 151.54296875 C-10.7238916 151.92066406 -11.85842773 152.29835937 -13.02734375 152.6875 C-13.98632568 153.01621094 -14.94530762 153.34492188 -15.93334961 153.68359375 C-23.50453627 155.17304962 -31.05463696 151.7204729 -38.171875 149.3828125 C-39.37665497 148.99230713 -40.58143494 148.60180176 -41.82272339 148.19946289 C-44.40049501 147.36331485 -46.97753363 146.52523149 -49.55352783 145.68365479 C-53.59415479 144.36374619 -57.63732566 143.05176758 -61.68115234 141.74169922 C-62.68537766 141.4163428 -62.68537766 141.4163428 -63.70989037 141.08441353 C-65.05601608 140.64830767 -66.40215087 140.2122298 -67.74829483 139.77618027 C-69.75406594 139.12621407 -71.75960988 138.47555106 -73.7651062 137.82473755 C-83.63947065 134.62156519 -93.52866014 131.46973409 -103.4375 128.375 C-104.80910151 127.94594441 -106.18068351 127.51682648 -107.55224609 127.08764648 C-109.58906846 126.45038652 -111.6259115 125.81319365 -113.66287231 125.17637634 C-126.17354739 121.26315203 -138.66477194 117.28808621 -151.15689087 113.31611633 C-157.93001746 111.16335481 -164.70542182 109.01787174 -171.48170662 106.87507915 C-177.73116336 104.89856197 -183.97929398 102.91788367 -190.22669792 100.93488789 C-194.14579796 99.6910968 -198.06545584 98.44913172 -201.98651123 97.21151733 C-205.71680154 96.03403668 -209.44546488 94.85153443 -213.17303085 93.66545868 C-214.55828769 93.22563612 -215.94410933 92.78758776 -217.3305397 92.35147858 C-236.85608717 86.20641283 -236.85608717 86.20641283 -240.8125 82.25 C-242.75 78.375 -242.75 78.375 -242.8125 76.25 C-240.04660966 71.10348354 -237.67424919 69.26904342 -232.2265625 67.296875 C-231.57329987 67.05426941 -230.92003723 66.81166382 -230.24697876 66.56170654 C-228.10843402 65.77259349 -225.9609617 65.01164606 -223.8125 64.25 C-222.34141682 63.71090588 -220.87104572 63.16986491 -219.40136719 62.62695312 C-214.67392261 60.88827027 -209.93171176 59.19228687 -205.1875 57.5 C-203.46563465 56.88336473 -201.74379253 56.2666646 -200.02197266 55.64990234 C-188.59130064 51.56267333 -177.12705731 47.58432341 -165.63818359 43.66381836 C-157.8919162 41.00686741 -150.23358896 38.17360074 -142.60308838 35.20210266 C-136.77471497 32.95132161 -130.90606514 30.89994127 -124.96875 28.95703125 C-114.37695231 25.45736151 -103.84038384 21.81174244 -93.3125 18.125 C-91.4571557 17.47676475 -89.60176748 16.82865517 -87.74633789 16.18066406 C-78.54347555 12.96493211 -69.34542967 9.73575908 -60.15234375 6.4921875 C-58.46484407 5.89729728 -56.77734407 5.30240794 -55.08984375 4.70751953 C-51.94689166 3.5993893 -48.80512356 2.48798935 -45.6640625 1.37451172 C-41.7206019 -0.0212499 -37.76754262 -1.38742473 -33.8125 -2.75 C-32.36641357 -3.27303711 -32.36641357 -3.27303711 -30.89111328 -3.80664062 C-19.84878444 -7.5630251 -10.60608168 -3.63629887 0 0 Z " fill="#FEFEFE" transform="translate(276.8125,5.75)"/>
<path d="M0 0 C4.39221748 3.79327874 7.70962225 7.50773352 8.6875 13.375 C9.04380089 18.96784424 7.68931178 23.05488614 4.4375 27.625 C0.26762155 31.89185237 -3.06774132 33.88067325 -9.1328125 34.44140625 C-14.89391212 34.26070755 -20.33370294 31.50886912 -24.25 27.375 C-27.54483828 22.15992158 -28.92614554 17.56857542 -27.859375 11.4453125 C-26.26691946 6.03504689 -22.85135343 2.44256895 -18.25 -0.625 C-12.02748851 -3.59483503 -6.05919329 -3.02959665 0 0 Z " fill="#FCFCFC" transform="translate(350.25,234.625)"/>
<path d="M0 0 C5.76083145 -0.44082884 9.42116725 0.99484619 14.046875 4.42578125 C18.00535452 8.28591345 18.70575126 12.4428851 19.37109375 17.765625 C18.66008776 23.45367291 16.60319718 27.63883192 12.49609375 31.640625 C6.76927497 35.27226618 1.67234191 36.26248124 -5.06640625 35.265625 C-10.66055052 33.0618712 -14.32373516 30.75096718 -17.06640625 25.265625 C-17.16376444 22.95479966 -17.19617998 20.64099542 -17.19140625 18.328125 C-17.19398438 17.08160156 -17.1965625 15.83507812 -17.19921875 14.55078125 C-17.06640625 11.265625 -17.06640625 11.265625 -16.06640625 8.265625 C-15.40640625 8.265625 -14.74640625 8.265625 -14.06640625 8.265625 C-13.97359375 7.3684375 -13.97359375 7.3684375 -13.87890625 6.453125 C-12.70344948 3.2884337 -11.08074863 2.67231811 -8.06640625 1.265625 C-5.37227213 0.59209147 -2.74618226 0.35300642 0 0 Z " fill="#F3F3F3" transform="translate(171.06640625,232.734375)"/>
<path d="" fill="#414141" transform="translate(0,0)"/>
<path d="" fill="#3B3B3B" transform="translate(0,0)"/>
<path d="" fill="#1B1B1B" transform="translate(0,0)"/>
<path d="" fill="#1A1A1A" transform="translate(0,0)"/>
</svg>
